<svg xmlns="http://www.w3.org/2000/svg" xmlns:xlink="http://www.w3.org/1999/xlink" version="1.1" style="" xml:space="preserve" width="68" height="68" viewBox="0 0 68 68"><rect id="backgroundrect" width="100%" height="100%" x="0" y="0" fill="none" stroke="none" class="" style=""/>
<style type="text/css">
	.st0{fill:#F9CD00;stroke:#421B01;stroke-width:1.5;stroke-miterlimit:10;}
	.st1{fill:#421B01;}
	.st2{fill:#421B01;stroke:#421B01;stroke-miterlimit:10;}
</style>





















<g class="currentLayer" style=""><title>Layer 1</title><circle class="st0" cx="34" cy="34" r="33" id="svg_1"/><g id="svg_2" class="">
	<g id="svg_3">
		<path class="st1" d="M27.774711871147154,22.974711108207703 v0.5 v9.3 h-3.3 l-0.5,0 v0.5 v2.2 v0.5 l0.5,0 h3.3 V37.6747111082077 h-3.3 l-0.5,0 v0.5 v1.9 v0.5 l0.5,0 h3.3 v2.8 l0,0.5 h0.5 h2.5 h0.5 l0,-0.5 v-2.8 h6.5 l0.5,0 l0,-0.5 v-1.9 l0,-0.5 l-0.5,0 h-6.5 v-1.7000000000000002 h5 c2,0 3.6,-0.6000000000000003 4.8,-1.8 c1.2,-1.2 1.9,-2.8 1.9,-4.7 c0,-1.9 -0.6000000000000003,-3.5 -1.9,-4.7 c-1.2,-1.2 -2.9,-1.8 -4.8,-1.8 h-8 M31.174711871147153,26.174711108207703 H35.874711871147156 c1,0 1.9,0.30000000000000016 2.5,0.9 c0.6000000000000003,0.6000000000000003 1,1.4 1,2.4 c0,1 -0.30000000000000016,1.8 -1,2.4 c-0.6000000000000003,0.6000000000000003 -1.5,0.9 -2.5,0.9 h-4.7 V26.174711108207703 z" id="svg_4"/>
	</g>
</g><line class="st2" x1="30.774713397026062" y1="2.5747112035751343" x2="30.874711871147156" y2="5.374710917472839" id="svg_5"/><line class="st2" x1="41.07471263408661" y1="3.3747109174728394" x2="40.374711871147156" y2="6.174711108207703" id="svg_6"/><line class="st2" x1="50.874711871147156" y1="7.874710917472839" x2="49.07471263408661" y2="10.074710726737976" id="svg_7"/><line class="st2" x1="57.97471034526825" y1="14.47471034526825" x2="55.874711871147156" y2="16.27471148967743" id="svg_8"/><line class="st2" x1="62.77471339702606" y1="23.674711108207703" x2="59.97471034526825" y2="24.47471034526825" id="svg_9"/><line class="st2" x1="64.37471187114716" y1="33.1747111082077" x2="61.374711871147156" y2="33.1747111082077" id="svg_10"/><line class="st2" x1="62.77471339702606" y1="43.274709582328796" x2="60.07471263408661" y2="42.07471263408661" id="svg_11"/><line class="st2" x1="58.1747111082077" y1="51.97471034526825" x2="55.874711871147156" y2="49.874711871147156" id="svg_12"/><line class="st2" x1="51.1747111082077" y1="58.97471034526825" x2="49.57471263408661" y2="56.47471034526825" id="svg_13"/><line class="st2" x1="42.1747111082077" y1="63.274709582328796" x2="41.27471339702606" y2="60.47471034526825" id="svg_14"/><line class="st2" x1="31.874711871147156" y1="64.57471263408661" x2="32.07471263408661" y2="61.474714159965515" id="svg_15"/><line class="st2" x1="21.57471263408661" y1="62.1747111082077" x2="22.874711871147156" y2="59.374711871147156" id="svg_16"/><line class="st2" x1="12.77471148967743" y1="56.6747111082077" x2="14.974712252616882" y2="54.47471034526825" id="svg_17"/><line class="st2" x1="6.5747116804122925" y1="48.97471034526825" x2="9.174712061882019" y2="47.47471034526825" id="svg_18"/><line class="st2" x1="2.8747118711471558" y1="39.374711871147156" x2="5.874711871147156" y2="38.774709582328796" id="svg_19"/><line class="st2" x1="2.8747118711471558" y1="28.774709582328796" x2="5.874711871147156" y2="29.57471263408661" id="svg_20"/><line class="st2" x1="6.0747116804122925" y1="19.27471148967743" x2="8.674712061882019" y2="20.874711871147156" id="svg_21"/><line class="st2" x1="12.27471148967743" y1="11.074710726737976" x2="14.474712252616882" y2="13.174711108207703" id="svg_22"/><line class="st2" x1="20.974712252616882" y1="5.374710917472839" x2="22.27471148967743" y2="8.074710726737976" id="svg_23"/></g></svg>
