<svg xmlns="http://www.w3.org/2000/svg" xmlns:xlink="http://www.w3.org/1999/xlink" version="1.1" style="" xml:space="preserve" width="68" height="68" viewBox="0 0 68 68"><rect id="backgroundrect" width="100%" height="100%" x="0" y="0" fill="none" stroke="none" style="" class=""/>
<style type="text/css">
	.st0{fill:none;stroke:#000000;stroke-width:1.5;stroke-miterlimit:10;}
	.st1{fill:none;stroke:#000000;stroke-miterlimit:10;}
</style>





















<g class="currentLayer" style=""><title>Layer 1</title><circle class="st0" cx="34.220710784196854" cy="34.23727956414223" r="33" id="svg_1"/><g id="svg_2" class="">
	<g id="svg_3">
		<path d="M28.4207100212574,23.63727803826332 v0.5 v9.3 h-3.3 h-0.5 v0.5 v2.2 v0.5 h0.5 h3.3 V38.33727803826332 h-3.3 h-0.5 v0.5 v1.9 v0.5 h0.5 h3.3 v2.8 v0.5 h0.5 h2.5 h0.5 v-0.5 v-2.8 h6.5 h0.5 v-0.5 v-1.9 V38.33727803826332 h-0.5 h-6.5 v-1.7000000000000002 h5 c2,0 3.6,-0.6000000000000006 4.8,-1.8 s1.9,-2.8 1.9,-4.7 c0,-1.9 -0.6000000000000006,-3.5 -1.9,-4.7 c-1.2,-1.2 -2.9,-1.8 -4.8,-1.8 h-8 M31.820710021257398,26.83727803826332 H36.5207100212574 c1,0 1.9,0.3000000000000003 2.5,0.9 s1,1.4 1,2.4 s-0.3000000000000003,1.8 -1,2.4 c-0.6000000000000006,0.6000000000000006 -1.5,0.9 -2.5,0.9 h-4.7 V26.83727803826332 z" id="svg_4"/>
	</g>
</g><line class="st1" x1="31.420711547136307" y1="3.2372781336307526" x2="31.5207100212574" y2="6.037277847528458" id="svg_5"/><line class="st1" x1="41.720710784196854" y1="4.037277847528458" x2="41.0207100212574" y2="6.837278038263321" id="svg_6"/><line class="st1" x1="51.5207100212574" y1="8.537277847528458" x2="49.720710784196854" y2="10.737277656793594" id="svg_7"/><line class="st1" x1="58.620708495378494" y1="15.137277275323868" x2="56.5207100212574" y2="16.937278419733047" id="svg_8"/><line class="st1" x1="63.42071154713631" y1="24.33727803826332" x2="60.620708495378494" y2="25.137277275323868" id="svg_9"/><line class="st1" x1="65.0207100212574" y1="33.83727803826332" x2="62.0207100212574" y2="33.83727803826332" id="svg_10"/><line class="st1" x1="63.42071154713631" y1="43.937276512384415" x2="60.720710784196854" y2="42.73727956414223" id="svg_11"/><line class="st1" x1="58.82070925831795" y1="52.63727727532387" x2="56.5207100212574" y2="50.537278801202774" id="svg_12"/><line class="st1" x1="51.82070925831795" y1="59.63727727532387" x2="50.220710784196854" y2="57.13727727532387" id="svg_13"/><line class="st1" x1="42.82070925831795" y1="63.937276512384415" x2="41.92071154713631" y2="61.13727727532387" id="svg_14"/><line class="st1" x1="32.5207100212574" y1="65.23727956414223" x2="32.720710784196854" y2="62.13728109002113" id="svg_15"/><line class="st1" x1="22.220710784196854" y1="62.83727803826332" x2="23.5207100212574" y2="60.037278801202774" id="svg_16"/><line class="st1" x1="13.420709639787674" y1="57.33727803826332" x2="15.620710402727127" y2="55.13727727532387" id="svg_17"/><line class="st1" x1="7.220709830522537" y1="49.63727727532387" x2="9.820710211992264" y2="48.13727727532387" id="svg_18"/><line class="st1" x1="3.5207100212574005" y1="40.037278801202774" x2="6.5207100212574005" y2="39.437276512384415" id="svg_19"/><line class="st1" x1="3.5207100212574005" y1="29.437276512384415" x2="6.5207100212574005" y2="30.237279564142227" id="svg_20"/><line class="st1" x1="6.720709830522537" y1="19.937278419733047" x2="9.320710211992264" y2="21.537278801202774" id="svg_21"/><line class="st1" x1="12.920709639787674" y1="11.737277656793594" x2="15.120710402727127" y2="13.837278038263321" id="svg_22"/><line class="st1" x1="21.620710402727127" y1="6.037277847528458" x2="22.920709639787674" y2="8.737277656793594" id="svg_23"/></g></svg>
